<svg width="18" height="18" viewBox="0 0 18 18" fill="none" xmlns="http://www.w3.org/2000/svg">
<g id="dentistry">
<mask id="mask0_2150_2618" style="mask-type:alpha" maskUnits="userSpaceOnUse" x="0" y="0" width="18" height="18">
<rect id="Bounding box" width="18" height="18" fill="#D9D9D9"/>
</mask>
<g mask="url(#mask0_2150_2618)">
<path id="dentistry_2" d="M12.75 1.59375C13.575 1.59375 14.2813 1.8875 14.8688 2.475C15.4563 3.0625 15.75 3.76875 15.75 4.59375C15.75 4.73125 15.7406 4.91563 15.7219 5.14688C15.7031 5.37813 15.675 5.64375 15.6375 5.94375L14.6063 13.5C14.5437 13.975 14.3281 14.3625 13.9594 14.6625C13.5906 14.9625 13.1687 15.1125 12.6938 15.1125C12.4062 15.1125 12.1406 15.05 11.8969 14.925C11.6531 14.8 11.45 14.625 11.2875 14.4L9.28125 11.475C9.25625 11.425 9.21563 11.3906 9.15938 11.3719C9.10313 11.3531 9.04375 11.3438 8.98125 11.3438C8.93125 11.3438 8.83125 11.4 8.68125 11.5125L6.73125 14.3438C6.55625 14.5938 6.34063 14.7844 6.08438 14.9156C5.82813 15.0469 5.55625 15.1125 5.26875 15.1125C4.79375 15.1125 4.375 14.9594 4.0125 14.6531C3.65 14.3469 3.4375 13.9563 3.375 13.4813L2.3625 5.94375C2.325 5.64375 2.29688 5.37813 2.27813 5.14688C2.25938 4.91563 2.25 4.73125 2.25 4.59375C2.25 3.76875 2.54375 3.0625 3.13125 2.475C3.71875 1.8875 4.425 1.59375 5.25 1.59375C5.7 1.59375 6.05938 1.65312 6.32812 1.77187C6.59688 1.89062 6.85625 2.01875 7.10625 2.15625C7.35625 2.29375 7.62187 2.42188 7.90312 2.54063C8.18437 2.65938 8.55 2.71875 9 2.71875C9.45 2.71875 9.81563 2.65938 10.0969 2.54063C10.3781 2.42188 10.6438 2.29375 10.8938 2.15625C11.1438 2.01875 11.4062 1.89062 11.6812 1.77187C11.9563 1.65312 12.3125 1.59375 12.75 1.59375ZM12.75 3.09375C12.4625 3.09375 12.2094 3.15312 11.9906 3.27187C11.7719 3.39062 11.5312 3.51875 11.2688 3.65625C11.0063 3.79375 10.7 3.92188 10.35 4.04063C10 4.15937 9.55 4.21875 9 4.21875C8.45 4.21875 8 4.15937 7.65 4.04063C7.3 3.92188 6.99375 3.79375 6.73125 3.65625C6.46875 3.51875 6.22813 3.39062 6.00938 3.27187C5.79063 3.15312 5.5375 3.09375 5.25 3.09375C4.8375 3.09375 4.48438 3.24063 4.19063 3.53438C3.89688 3.82812 3.75 4.18125 3.75 4.59375C3.75 4.69375 3.75625 4.8375 3.76875 5.025C3.78125 5.2125 3.80625 5.43125 3.84375 5.68125L4.875 13.275C4.8875 13.375 4.93125 13.4531 5.00625 13.5094C5.08125 13.5656 5.16875 13.5938 5.26875 13.5938C5.33125 13.5938 5.3875 13.5813 5.4375 13.5562C5.4875 13.5312 5.525 13.4938 5.55 13.4438L7.44375 10.6688C7.61875 10.4187 7.84375 10.2188 8.11875 10.0688C8.39375 9.91875 8.6875 9.84375 9 9.84375C9.3125 9.84375 9.60625 9.91875 9.88125 10.0688C10.1562 10.2188 10.3812 10.4187 10.5562 10.6688L12.4875 13.5C12.5125 13.5375 12.5438 13.5656 12.5813 13.5844C12.6188 13.6031 12.6625 13.6125 12.7125 13.6125C12.8125 13.6125 12.9031 13.5844 12.9844 13.5281C13.0656 13.4719 13.1125 13.3938 13.125 13.2938L14.1562 5.68125C14.1938 5.43125 14.2188 5.2125 14.2313 5.025C14.2438 4.8375 14.25 4.69375 14.25 4.59375C14.25 4.18125 14.1031 3.82812 13.8094 3.53438C13.5156 3.24063 13.1625 3.09375 12.75 3.09375Z" fill="#2CABBE"/>
</g>
</g>
</svg>
