<svg width="24" height="25" viewBox="0 0 24 25" fill="none" xmlns="http://www.w3.org/2000/svg">
<g id="ferramentas">
<mask id="mask0_2150_2558" style="mask-type:alpha" maskUnits="userSpaceOnUse" x="0" y="0" width="24" height="25">
<rect id="Bounding box" y="0.265137" width="24" height="24" fill="#D9D9D9"/>
</mask>
<g mask="url(#mask0_2150_2558)">
<g id="Group">
<path id="Vector" d="M12.4457 -0.0883789C12.6062 -0.0527177 12.7666 -0.0170565 12.9093 0.0186047C14.4427 0.428709 15.5126 1.80167 15.5304 3.38859C15.5304 4.97551 14.4962 6.34847 12.9628 6.79424C12.8915 6.81207 12.8201 6.8299 12.731 6.86556V11.2341H14.1218C14.1218 11.2341 14.1218 11.3767 14.1218 11.448C14.1218 14.8715 14.1218 18.295 14.1218 21.7185C14.1218 22.9488 13.1946 23.8938 11.9999 23.876C10.8766 23.876 9.94941 22.9488 9.91375 21.8254C9.91375 21.6828 9.91375 21.5223 9.91375 21.3797C9.91375 18.0988 9.91375 14.8358 9.91375 11.555V11.2519H11.3045V6.93688C10.8944 6.74074 10.4665 6.58027 10.0921 6.34847C8.87958 5.56392 8.29117 4.10181 8.59429 2.72886C8.91524 1.28458 10.0386 0.196911 11.4828 -0.0348871C11.5185 -0.0348871 11.572 -0.0705483 11.6077 -0.0705483C11.893 -0.0705483 12.1604 -0.0705483 12.4457 -0.0705483V-0.0883789ZM12.0356 5.52826C13.1946 5.52826 14.1396 4.58324 14.1396 3.42425C14.1396 2.26526 13.1946 1.32024 12.0356 1.32024C10.8766 1.32024 9.93158 2.26526 9.93158 3.42425C9.93158 4.58324 10.8766 5.54609 12.0356 5.52826ZM11.3402 15.4599C11.3402 15.4599 11.3402 15.5312 11.3402 15.5491C11.3402 17.6174 11.3402 19.6679 11.3402 21.7363C11.3402 21.7541 11.3402 21.7898 11.3402 21.8076C11.3759 22.1464 11.6433 22.4139 11.9643 22.4495C12.2852 22.4852 12.6062 22.2712 12.6953 21.9503C12.731 21.8433 12.731 21.7185 12.731 21.6115C12.731 19.6501 12.731 17.6709 12.731 15.7095V15.4599H11.3402ZM11.3402 14.0335H12.7132V12.6605H11.3402V14.0335Z" fill="#2CABBE"/>
<path id="Vector_2" d="M20.7198 -0.0883789C21.0407 0.054266 21.3974 0.143419 21.6826 0.339556C22.4137 0.838813 22.699 1.78384 22.4315 2.6397C22.1641 3.47774 21.3795 4.08398 20.488 4.11964C20.2384 4.11964 19.9887 4.11964 19.7213 4.11964V11.2162H21.0942C21.0942 11.2162 21.1121 11.341 21.1121 11.3767C21.1121 14.8358 21.1121 18.295 21.1121 21.7541C21.1121 22.8953 20.2027 23.8046 19.0794 23.8403C17.9026 23.876 16.9219 22.9488 16.9219 21.7719C16.9219 20.399 16.9219 19.026 16.9219 17.6531C16.9219 15.6026 16.9219 13.5699 16.9219 11.5193V11.2162H18.3127V2.71103C18.4018 2.71103 18.4731 2.71103 18.5445 2.71103C19.1507 2.71103 19.7391 2.71103 20.3454 2.71103C20.8089 2.71103 21.1121 2.42574 21.1299 2.01563C21.1299 1.60553 20.8089 1.30241 20.3454 1.30241C19.222 1.30241 18.0809 1.30241 16.9219 1.30241V-0.0883789C18.1878 -0.0883789 19.4538 -0.0883789 20.7198 -0.0883789ZM18.3305 15.4421C18.3305 16.2088 18.3305 16.9755 18.3305 17.7244C18.3305 19.0439 18.3305 20.3633 18.3305 21.665C18.3305 21.9859 18.4553 22.2355 18.7584 22.3782C19.2399 22.5922 19.7391 22.2355 19.7391 21.665C19.7391 19.6323 19.7391 17.5996 19.7391 15.5669C19.7391 15.5312 19.7391 15.4777 19.7391 15.4243H18.3483L18.3305 15.4421ZM18.3305 12.6427V14.0156H19.7035V12.6427H18.3305Z" fill="#2CABBE"/>
<path id="Vector_3" d="M1.9619 -0.0883789C2.24718 -0.0170565 2.51464 0.0364354 2.79993 0.125588C4.54733 0.696168 5.70632 2.30092 5.70632 4.13748C5.70632 6.40196 5.70632 8.66645 5.70632 10.9131C5.70632 11.0023 5.70632 11.0914 5.70632 11.2162H7.09711C7.09711 11.3054 7.09711 11.3767 7.09711 11.448C7.09711 14.8537 7.09711 18.2771 7.09711 21.6828C7.09711 22.9131 6.16992 23.8581 4.97527 23.8403C3.85194 23.8403 2.90692 22.9131 2.88909 21.7898C2.88909 20.8269 2.88909 19.8641 2.88909 18.8834C2.88909 16.4228 2.88909 13.98 2.88909 11.5193V11.2162H4.29771V10.9131C4.29771 8.71994 4.26204 6.50895 4.29771 4.31578C4.33337 2.72886 3.21004 1.33807 1.48047 1.26675V-0.0883789C1.65877 -0.0883789 1.80142 -0.0883789 1.9619 -0.0883789ZM5.68849 15.4599H4.29771C4.29771 17.5818 4.29771 19.6858 4.29771 21.7898C4.29771 22.1642 4.61866 22.4673 4.9931 22.4673C5.36754 22.4673 5.68849 22.1642 5.68849 21.7719C5.68849 19.6858 5.68849 17.6174 5.68849 15.5312C5.68849 15.5312 5.68849 15.4956 5.68849 15.4777V15.4599ZM5.68849 12.6605H4.31554V14.0335H5.68849V12.6605Z" fill="#2CABBE"/>
</g>
</g>
</g>
</svg>
