<svg width="28" height="29" viewBox="0 0 28 29" fill="none" xmlns="http://www.w3.org/2000/svg">
<g id="implantes">
<mask id="mask0_2150_2574" style="mask-type:alpha" maskUnits="userSpaceOnUse" x="0" y="0" width="28" height="29">
<rect id="Bounding box" y="0.265137" width="28" height="28" fill="#D9D9D9"/>
</mask>
<g mask="url(#mask0_2150_2574)">
<path id="Vector" d="M3.5743 6.93307C3.47605 6.45663 3.37779 5.98019 3.29919 5.50374C3.04373 3.96614 3.47605 2.68841 4.61578 1.75718C5.77517 0.825952 7.0328 0.760982 8.27079 1.51896C8.70311 1.77884 9.01752 1.77884 9.44983 1.51896C10.9236 0.587731 12.7708 1.04252 13.7926 2.51515C13.8516 2.60178 13.9105 2.68841 13.9891 2.81834C14.0481 2.73172 14.107 2.64509 14.166 2.58012C15.2468 0.999203 17.1136 0.566074 18.6463 1.54061C19.0197 1.77884 19.3144 1.77884 19.6878 1.54061C20.9258 0.782639 22.1834 0.804295 23.3625 1.71387C24.5218 2.62344 24.9542 3.92282 24.7183 5.48209C24.6397 5.95853 24.5415 6.41331 24.4432 6.91141C24.5218 6.95473 24.5808 6.99804 24.6594 7.01969C26.7424 7.95092 27.9804 9.94331 28 12.4121C28 13.4083 28 14.3829 28 15.3791C28 17.0033 27.0961 17.9995 25.6026 17.9995C19.1769 17.9995 12.7511 17.9995 6.32538 17.9995C5.00879 17.9995 3.71185 17.9995 2.39526 17.9995C0.941118 17.9995 0.0175394 17.0033 0.0175394 15.4007C0.0175394 14.188 -0.0414124 12.9969 0.0568406 11.7841C0.253347 9.53184 1.37343 7.97258 3.24024 7.06301C3.33849 7.01969 3.4564 6.95473 3.5743 6.91141V6.93307ZM21.3974 11.5242C21.7904 11.6109 22.0852 11.8491 22.0852 12.3255C22.0852 12.8453 21.7904 13.0835 21.3777 13.1918C21.3777 13.3867 21.3777 13.5599 21.3777 13.7332C21.417 14.2313 21.2205 14.5778 20.8079 14.7944C20.3952 15.0109 20.0022 15.2708 19.5699 15.4441C19.3537 15.5307 19.0393 15.5523 18.8232 15.4441C18.3319 15.2491 17.8799 14.946 17.4083 14.6861C17.1332 14.5345 16.976 14.2746 16.976 13.9281C16.976 13.6682 16.976 13.43 16.976 13.1918C16.4454 12.9752 16.2293 12.737 16.2293 12.3255C16.2293 11.9141 16.4454 11.6758 16.9367 11.4809V10.7229C16.7992 10.7229 16.6813 10.7229 16.583 10.7229C15.6594 10.7229 15.4826 10.5064 15.4826 9.48853C15.4826 9.09871 15.4826 8.7089 15.4826 8.31908C14.9323 8.23246 14.3232 8.49233 14.0088 7.64773C13.9695 7.82098 13.9498 7.88595 13.9302 7.95092C13.6944 9.14203 13.4586 10.3548 13.2031 11.5459C13.0066 12.4988 12.3385 13.1052 11.5131 13.1701C10.6289 13.2134 9.92144 12.6937 9.60703 11.7408C9.50878 11.416 9.41053 11.0911 9.31227 10.7663C9.23367 10.5064 9.09612 10.2898 8.84066 10.3548C8.68346 10.3981 8.48695 10.5714 8.40835 10.7446C8.27079 11.0261 8.21184 11.3726 8.11359 11.6758C7.79918 12.672 7.09176 13.2134 6.16818 13.1485C5.3232 13.1052 4.67473 12.4338 4.47823 11.4376C4.28172 10.4847 4.08522 9.53184 3.90836 8.60062C3.86906 8.60062 3.82976 8.60062 3.81011 8.60062C3.75115 8.62227 3.67255 8.64393 3.6136 8.68724C2.31666 9.42356 1.56994 10.5497 1.51099 12.1739C1.47168 13.2567 1.51099 14.3612 1.51099 15.4441C1.51099 16.1587 1.76644 16.4186 2.41491 16.4402C10.1573 16.4402 17.8799 16.4402 25.6223 16.4402C26.2511 16.4402 26.5066 16.1587 26.5066 15.4874C26.5066 14.4695 26.5262 13.4517 26.5066 12.4555C26.5066 11.9574 26.428 11.4376 26.2707 10.9612C25.7598 9.38025 24.2467 8.25411 22.8515 8.40571C22.8515 8.90381 22.8515 9.4019 22.8515 9.9C22.8515 10.4414 22.5568 10.7446 22.0852 10.7663C21.869 10.7663 21.6529 10.7663 21.417 10.7663V11.5675L21.3974 11.5242ZM8.86031 8.7089C9.70529 8.7089 10.3931 9.25031 10.6878 10.1599C10.8057 10.5064 10.8647 10.8745 11.0219 11.1994C11.0808 11.351 11.297 11.5242 11.4149 11.5242C11.5524 11.5242 11.7097 11.3077 11.7686 11.1561C11.8472 10.9612 11.8669 10.7446 11.9062 10.528C12.2599 8.73055 12.6332 6.93307 12.9673 5.11393C13.1245 4.26933 12.8297 3.55466 12.1813 3.05657C11.5524 2.55847 10.8254 2.4935 10.1573 2.92663C9.25332 3.53301 8.40835 3.53301 7.50442 2.92663C6.8363 2.47184 6.10923 2.55847 5.46076 3.05657C4.85159 3.55466 4.53718 4.24767 4.69438 5.09227C5.06775 7.10632 5.48041 9.12037 5.91272 11.1344C5.95202 11.286 6.14853 11.5242 6.24678 11.5242C6.38434 11.5242 6.60049 11.351 6.65944 11.1777C6.81665 10.8312 6.8756 10.4631 6.9935 10.1166C7.28826 9.27196 7.97603 8.73055 8.80136 8.73055L8.86031 8.7089ZM15.3254 6.62988C15.3254 6.62988 15.404 6.65154 15.4433 6.65154C17.8799 6.65154 20.3363 6.65154 22.7729 6.65154C22.8712 6.65154 23.0087 6.49994 23.0284 6.41331C23.1267 6.0235 23.2053 5.61203 23.2839 5.20055C23.4411 4.3343 23.1856 3.61963 22.5568 3.07822C21.9083 2.53681 21.1812 2.45019 20.4935 2.90497C19.5895 3.51135 18.7446 3.51135 17.8406 2.90497C17.1725 2.45019 16.4651 2.53681 15.8363 3.01325C15.2075 3.51135 14.9323 4.20436 15.0503 5.04896C15.1289 5.56871 15.2468 6.08847 15.345 6.60822L15.3254 6.62988ZM22.1638 9.27197V8.0592H16.0721V9.27197H22.1638ZM17.4476 11.5675H20.9061V10.6796H17.4476V11.5675ZM20.4345 13.3434H17.7817C17.9389 13.6466 18.0175 13.8848 18.155 14.0147C18.7839 14.5995 19.452 14.6428 20.1005 14.0147C20.238 13.8848 20.297 13.6249 20.4345 13.3217V13.3434Z" fill="#2CABBE"/>
</g>
</g>
</svg>
