<svg width="24" height="14" viewBox="0 0 24 14" fill="none" xmlns="http://www.w3.org/2000/svg">
<g id="ortodontia 1" clip-path="url(#clip0_2318_2138)">
<g id="Layer 1">
<g id="Group">
<path id="Vector" d="M9.5437 4.52948e-05C10.2983 -0.0203918 10.9516 0.265728 11.5038 0.858405C12.0559 1.44086 12.332 2.15616 12.3504 3.00431C12.3504 3.14737 12.3504 3.3313 12.332 3.56633C12.3228 3.80135 12.2952 4.07726 12.2676 4.38381L11.4762 12.1295C11.4302 12.62 11.2369 13.0185 10.9056 13.3353C10.5744 13.6521 10.1879 13.8156 9.75535 13.8258C9.48848 13.8258 9.24922 13.7747 9.01917 13.6521C8.78911 13.5294 8.60506 13.3557 8.44862 13.1309L6.55295 10.188C6.55295 10.188 6.48854 10.1062 6.44252 10.0858C6.38731 10.0653 6.3321 10.0551 6.27688 10.0653C6.23087 10.0653 6.13885 10.1267 6.01002 10.2493L4.27999 13.182C4.12355 13.4375 3.9303 13.6418 3.70024 13.7849C3.47018 13.928 3.22172 13.9995 2.95486 13.9995C2.52235 14.0097 2.13585 13.8666 1.79537 13.5601C1.45488 13.2535 1.25243 12.8652 1.18802 12.3747L0.129753 4.66993C0.0929435 4.36338 0.0561343 4.09769 0.0377297 3.86267C0.0193252 3.62764 0.00092057 3.43349 0.00092057 3.30064C-0.017484 2.46272 0.24018 1.72698 0.764711 1.11387C1.28924 0.500755 1.9334 0.18398 2.68799 0.163542C3.10209 0.163542 3.43337 0.204417 3.68184 0.316821C3.9303 0.429225 4.16956 0.562067 4.39962 0.694908C4.62967 0.82775 4.87813 0.950373 5.1358 1.073C5.39346 1.19562 5.73395 1.23649 6.13885 1.22627C6.54375 1.21606 6.88423 1.14453 7.1419 1.0219C7.39956 0.89928 7.63882 0.75622 7.85968 0.61316C8.08053 0.4701 8.31979 0.32704 8.56825 0.204417C8.81672 0.0817939 9.13879 0.0102639 9.5437 4.52948e-05ZM9.5713 1.53283C9.30444 1.53283 9.07438 1.60436 8.88113 1.72698C8.68788 1.84961 8.46703 1.99267 8.22777 2.13573C7.98851 2.27879 7.71244 2.42185 7.39036 2.54447C7.06828 2.67731 6.66338 2.74884 6.15725 2.75906C5.65113 2.76928 5.23702 2.71819 4.91494 2.60578C4.59286 2.49338 4.30759 2.37075 4.06833 2.23791C3.82907 2.10507 3.59902 1.98245 3.39657 1.85983C3.19412 1.74742 2.96406 1.68611 2.69719 1.69633C2.3199 1.69633 1.99782 1.85983 1.74015 2.16638C1.47329 2.47294 1.35366 2.84081 1.35366 3.25977C1.35366 3.36196 1.36286 3.50502 1.38126 3.69917C1.39967 3.89332 1.42728 4.11813 1.46408 4.36338L2.55916 12.0988C2.56836 12.201 2.61437 12.2828 2.68799 12.3339C2.76161 12.385 2.83523 12.4156 2.92725 12.4156C2.98246 12.4156 3.03768 12.3952 3.08369 12.3747C3.1297 12.3543 3.16651 12.3134 3.18491 12.2623L4.85973 9.3807C5.01617 9.12523 5.21862 8.91064 5.46708 8.75736C5.71554 8.59387 5.98241 8.51212 6.26768 8.51212C6.55295 8.51212 6.81982 8.57343 7.07748 8.72671C7.33515 8.86977 7.5376 9.07414 7.70324 9.3296L9.52529 12.1806C9.52529 12.1806 9.5805 12.2419 9.61731 12.2623C9.65412 12.2828 9.69093 12.293 9.73694 12.293C9.82897 12.293 9.91179 12.2623 9.98541 12.201C10.059 12.1397 10.0958 12.058 10.105 11.9558L10.8964 4.159C10.924 3.90354 10.9424 3.67873 10.9516 3.48458C10.9516 3.29043 10.9608 3.14737 10.9516 3.04518C10.9516 2.62622 10.8044 2.26857 10.5283 1.97223C10.2523 1.67589 9.93019 1.53283 9.5529 1.54305L9.5713 1.53283ZM6.23087 7.29611C6.65418 7.29611 7.07748 7.27567 7.50079 7.26545C7.71244 7.26545 7.88728 7.00999 7.88728 6.70343C7.88728 6.26403 7.87808 5.83485 7.85968 5.39545C7.85047 5.09911 7.66643 4.86409 7.45478 4.86409C6.59896 4.8743 5.74315 4.89474 4.89654 4.9254C4.62047 4.9254 4.51925 5.10933 4.51925 5.50786C4.51925 5.9166 4.52845 6.31512 4.54685 6.72387C4.54685 7.06108 4.7585 7.33698 4.99776 7.32676C5.41187 7.32676 5.81677 7.30632 6.23087 7.29611ZM8.98236 6.41731C9.42407 6.40709 9.86578 6.39687 10.2983 6.38665C10.5191 6.38665 10.7032 6.28447 10.7124 6.16184C10.7124 5.99835 10.7124 5.83485 10.7032 5.67135C10.7032 5.55895 10.5099 5.46698 10.2891 5.4772C9.39646 5.49764 8.51304 5.51807 7.62042 5.53851C7.33515 5.53851 7.22472 5.61004 7.22472 5.76332C7.22472 5.9166 7.22472 6.06988 7.22472 6.22316C7.22472 6.356 7.43637 6.44796 7.68483 6.44796C8.11734 6.44796 8.54065 6.42753 8.97315 6.41731H8.98236ZM3.5162 6.55015C3.95791 6.53993 4.39962 6.52971 4.84133 6.51949C5.06218 6.51949 5.25543 6.41731 5.25543 6.29469C5.25543 6.13119 5.25543 5.96769 5.24623 5.80419C5.24623 5.69179 5.05298 5.59982 4.83212 5.61004C3.9395 5.63048 3.05608 5.65092 2.16346 5.67135C1.87819 5.67135 1.76776 5.74288 1.76776 5.89616C1.76776 6.04944 1.76776 6.20272 1.76776 6.356C1.76776 6.48884 1.97941 6.58081 2.22787 6.58081C2.66038 6.58081 3.08369 6.56037 3.5162 6.55015Z" fill="#2CABBE"/>
<path id="Vector_2" d="M21.2852 0.164035C22.0398 0.164035 22.6839 0.480811 23.2177 1.08371C23.7514 1.6866 24.0091 2.41212 23.9999 3.26026C23.9999 3.40332 23.9907 3.58726 23.9723 3.82228C23.9539 4.05731 23.9262 4.33321 23.8894 4.63977L22.868 12.3446C22.8036 12.8248 22.6011 13.2234 22.2606 13.5299C21.9201 13.8365 21.5337 13.9795 21.1011 13.9795C20.8343 13.9795 20.595 13.908 20.3742 13.7752C20.1533 13.6423 19.9693 13.4686 19.822 13.2336L18.0184 10.2191C18 10.168 17.9632 10.1271 17.9079 10.1169C17.8527 10.0965 17.8067 10.0863 17.7423 10.0863C17.6963 10.0863 17.6043 10.1374 17.4662 10.26L15.6534 13.1314C15.4877 13.3869 15.2945 13.581 15.0552 13.7036C14.816 13.8365 14.5675 13.8978 14.3099 13.8978C13.8773 13.8978 13.4908 13.7343 13.1688 13.4175C12.8375 13.1007 12.6534 12.7022 12.5982 12.2117L11.7424 4.49671C11.7148 4.19015 11.6872 3.91425 11.6688 3.67922C11.6504 3.4442 11.6504 3.25004 11.6504 3.1172C11.6504 2.27928 11.9357 1.55376 12.4786 0.961084C13.0215 0.368407 13.6749 0.0720682 14.4295 0.0822868C14.8436 0.0822868 15.1657 0.153817 15.4141 0.27644C15.6626 0.399063 15.8926 0.531904 16.1227 0.674964C16.3528 0.818024 16.592 0.950865 16.8497 1.07349C17.1073 1.19611 17.4386 1.26764 17.8527 1.26764C18.2668 1.26764 18.5981 1.21655 18.8558 1.09393C19.1134 0.971303 19.3619 0.84868 19.592 0.70562C19.822 0.56256 20.0613 0.439937 20.3189 0.317314C20.5674 0.194691 20.8987 0.143598 21.2944 0.143598L21.2852 0.164035ZM21.2668 1.69682C20.9999 1.69682 20.7699 1.74791 20.5674 1.87054C20.365 1.99316 20.1441 2.11578 19.9048 2.25884C19.6656 2.4019 19.3803 2.52453 19.0582 2.63693C18.7362 2.74933 18.3221 2.81065 17.8251 2.80043C17.3282 2.79021 16.9141 2.7289 16.592 2.60627C16.2699 2.48365 15.9939 2.35081 15.7546 2.20775C15.5154 2.06469 15.2945 1.93185 15.1012 1.80923C14.8988 1.6866 14.6687 1.62529 14.4111 1.61507C14.0338 1.61507 13.7117 1.75813 13.4356 2.05447C13.1596 2.35081 13.0215 2.70846 13.0215 3.12742C13.0215 3.22961 13.0215 3.37267 13.0307 3.56682C13.0399 3.76097 13.0583 3.98578 13.0951 4.24125L13.9602 12.0074C13.9694 12.1095 14.0062 12.1913 14.0798 12.2526C14.1442 12.3139 14.227 12.3446 14.3191 12.3446C14.3743 12.3446 14.4295 12.3344 14.4755 12.3037C14.5215 12.273 14.5583 12.2424 14.5767 12.1913L16.3344 9.38119C16.5 9.12572 16.7024 8.92135 16.9601 8.77829C17.2178 8.62501 17.4846 8.55348 17.7699 8.55348C18.0552 8.55348 18.3221 8.63523 18.5705 8.78851C18.819 8.94179 19.0214 9.15638 19.1779 9.41184L20.9171 12.3241C20.9171 12.3241 20.9723 12.3957 20.9999 12.4161C21.0367 12.4365 21.0735 12.4468 21.1195 12.4468C21.2116 12.4468 21.2944 12.4161 21.368 12.365C21.4416 12.3037 21.4876 12.2322 21.4968 12.13L22.5183 4.36387C22.5551 4.1084 22.5827 3.8836 22.5919 3.68944C22.6011 3.49529 22.6103 3.35223 22.6103 3.25004C22.6103 2.83108 22.4815 2.46321 22.2146 2.16688C21.9478 1.86032 21.6257 1.70704 21.2484 1.70704L21.2668 1.69682ZM17.7515 7.33747C18.1748 7.33747 18.5981 7.34769 19.0214 7.34769C19.2331 7.34769 19.4171 7.10245 19.4263 6.79589C19.4355 6.35649 19.4355 5.92731 19.4355 5.48791C19.4355 5.19157 19.2607 4.94633 19.049 4.94633C18.1932 4.92589 17.3374 4.91567 16.4908 4.91567C16.2147 4.91567 16.1043 5.07917 16.0951 5.47769C16.0951 5.88644 16.0859 6.28496 16.0859 6.6937C16.0859 7.03092 16.2791 7.30682 16.5184 7.31704C16.9325 7.31704 17.3374 7.32725 17.7515 7.33747ZM20.5214 6.56086C20.9631 6.56086 21.4048 6.57108 21.8373 6.57108C22.0582 6.57108 22.2514 6.47911 22.2514 6.36671C22.2514 6.20321 22.2514 6.03971 22.2514 5.87622C22.2514 5.76381 22.0674 5.67185 21.8465 5.66163C20.9539 5.65141 20.0705 5.64119 19.1779 5.63097C18.8926 5.63097 18.7822 5.69228 18.773 5.84556C18.773 5.99884 18.773 6.15212 18.773 6.3054C18.773 6.43824 18.9754 6.54042 19.2239 6.54042C19.6564 6.54042 20.0797 6.55064 20.5122 6.56086H20.5214ZM15.0552 6.49955C15.4969 6.49955 15.9387 6.50977 16.3804 6.50977C16.6012 6.50977 16.7945 6.4178 16.7945 6.3054C16.7945 6.1419 16.7945 5.9784 16.7945 5.81491C16.7945 5.7025 16.6104 5.61053 16.3896 5.60032C15.4969 5.5901 14.6135 5.57988 13.7209 5.56966C13.4356 5.56966 13.3252 5.63097 13.316 5.78425C13.316 5.93753 13.316 6.09081 13.316 6.24409C13.316 6.37693 13.5185 6.47911 13.7761 6.47911C14.2086 6.47911 14.6319 6.48933 15.0644 6.49955H15.0552Z" fill="#2CABBE"/>
</g>
</g>
</g>
<defs>
<clipPath id="clip0_2318_2138">
<rect width="24" height="14" fill="white"/>
</clipPath>
</defs>
</svg>
