<svg width="19" height="20" viewBox="0 0 19 20" fill="none" xmlns="http://www.w3.org/2000/svg">
<g id="proteses">
<mask id="mask0_2150_2589" style="mask-type:alpha" maskUnits="userSpaceOnUse" x="0" y="0" width="19" height="20">
<rect id="Bounding box" y="0.265137" width="19" height="19" fill="#D9D9D9"/>
</mask>
<g mask="url(#mask0_2150_2589)">
<g id="Layer 1">
<g id="Group">
<path id="Vector" d="M0.00406024 17.8484C0.00406024 15.8713 0.00406024 13.8804 0.00406024 11.9033C0.0593637 11.8203 0.100841 11.7235 0.169971 11.6544C0.653876 11.212 1.17926 10.8248 1.82907 10.6728C2.1609 10.5898 2.50654 10.6036 2.83836 10.576C2.81071 10.493 2.76923 10.3824 2.72776 10.2718C2.1609 8.79244 1.67699 7.28542 1.53873 5.69545C1.34517 3.46948 2.67245 1.3956 4.80164 0.718135C5.93536 0.358662 7.06908 0.372488 8.13367 1.00848C8.39636 1.16056 8.64523 1.3403 8.89409 1.49238C9.29504 1.74125 9.69599 1.74125 10.1108 1.49238C10.2767 1.3956 10.4426 1.29882 10.5947 1.17439C11.4519 0.56605 12.4059 0.372488 13.429 0.524573C15.9176 0.870219 17.7012 3.15149 17.48 5.65397C17.3832 6.81534 17.1067 7.93524 16.7334 9.02748C16.5536 9.55286 16.3601 10.0782 16.1665 10.5898C16.4292 10.5898 16.6919 10.5622 16.9407 10.5898C17.7841 10.7142 18.3925 11.212 18.8487 11.9033C18.9455 12.0553 19.0008 12.2489 19.0008 12.4148C19.0008 14.1154 19.0008 15.8022 19.0008 17.5027C19.0008 18.0143 18.8072 18.2079 18.2957 18.2079C12.4473 18.2079 6.58517 18.2079 0.736831 18.2079C0.391184 18.2079 0.142319 18.1111 -0.00976562 17.7931L0.00406024 17.8484ZM2.93514 7.3269C2.93514 7.3269 2.99045 7.34072 3.00427 7.34072C4.04121 7.34072 5.07815 7.34072 6.12892 7.34072C6.18422 7.34072 6.26718 7.28542 6.29483 7.23012C6.50222 6.88447 6.70961 6.55265 6.91699 6.19318C7.05525 5.95814 7.24882 5.84753 7.52533 5.84753C8.86644 5.84753 10.1937 5.84753 11.5348 5.84753C11.7975 5.84753 11.9911 5.95814 12.1293 6.19318C12.3229 6.53882 12.5303 6.88447 12.7515 7.23012C12.793 7.28542 12.8759 7.34072 12.9451 7.34072C13.9405 7.34072 14.9498 7.34072 15.9453 7.34072C16.0559 7.34072 16.1112 7.31307 16.125 7.18864C16.208 6.66326 16.3186 6.12405 16.3739 5.59867C16.526 3.84278 15.5029 2.29428 13.8852 1.78273C13.0695 1.53386 12.2676 1.50621 11.5072 1.94864C11.2307 2.11455 10.968 2.30811 10.6915 2.46019C10.0555 2.83349 9.39182 2.91645 8.71436 2.6261C8.35488 2.47402 8.02306 2.23898 7.69124 2.03159C7.38707 1.83803 7.05525 1.68595 6.69578 1.64447C5.16111 1.43708 3.64026 2.28046 2.99045 3.70452C2.43741 4.90737 2.68628 6.11022 2.94897 7.31307L2.93514 7.3269ZM1.12396 17.1294H17.8947C17.8947 17.1294 17.9086 17.1018 17.9086 17.088C17.9086 15.5948 17.9086 14.0877 17.9086 12.5946C17.9086 12.5531 17.9086 12.4978 17.8671 12.4563C17.2311 11.5991 16.443 11.5161 15.6135 12.083C15.572 12.1106 15.5443 12.1521 15.5305 12.2074C15.254 12.9125 14.9636 13.6038 14.7148 14.309C14.4244 15.1662 13.8438 15.6639 12.9589 15.8298C11.8114 16.051 10.7744 15.3597 10.5808 14.2122C10.4841 13.6453 10.4149 13.0646 10.332 12.4839C10.2767 12.0692 9.91721 11.7235 9.53008 11.7235C9.12913 11.7235 8.76966 12.0553 8.71436 12.4701C8.6314 13.0093 8.56227 13.5624 8.47932 14.1016C8.39636 14.6823 8.13367 15.1523 7.66359 15.498C6.66813 16.2446 4.82929 15.816 4.35921 14.3781C4.11034 13.6177 3.77852 12.8849 3.48818 12.1383C3.46053 12.083 3.43288 12.0139 3.3914 12C3.10105 11.9033 2.81071 11.765 2.52037 11.7374C2.03646 11.6682 1.64934 11.9586 1.26221 12.2213C1.16543 12.2766 1.13778 12.3595 1.13778 12.4701C1.13778 12.9679 1.13778 13.4794 1.13778 13.9771C1.13778 15.0279 1.13778 16.0787 1.13778 17.1571L1.12396 17.1294ZM15.7932 8.46062C15.6826 8.46062 15.6135 8.46062 15.5443 8.46062C14.5627 8.46062 13.5811 8.46062 12.5994 8.46062C12.3091 8.46062 12.1017 8.35001 11.9634 8.10115C11.7699 7.7555 11.5625 7.43751 11.3689 7.09186C11.3136 7.0089 11.2583 6.96743 11.1477 6.96743C10.0693 6.96743 8.97705 6.96743 7.89863 6.96743C7.78802 6.96743 7.73272 7.0089 7.67742 7.09186C7.48385 7.42368 7.27647 7.7555 7.0829 8.10115C6.94465 8.35001 6.73726 8.46062 6.44691 8.46062C5.45145 8.46062 4.46982 8.46062 3.47435 8.46062C3.40522 8.46062 3.34992 8.46062 3.25314 8.46062C3.46053 9.02748 3.65409 9.56669 3.86148 10.1059C4.35921 11.3917 4.89842 12.6637 5.38232 13.9495C5.56206 14.4196 5.86623 14.6823 6.35013 14.7376C6.88934 14.8067 7.29029 14.4887 7.37325 13.9633C7.4562 13.3826 7.53916 12.8019 7.63594 12.2213C7.78802 11.3087 8.60375 10.6175 9.51626 10.6175C10.4426 10.6175 11.2721 11.3087 11.4242 12.2213C11.521 12.8019 11.604 13.3965 11.6869 13.9771C11.7422 14.3504 11.9358 14.5993 12.2814 14.7099C12.7792 14.8896 13.4152 14.5717 13.6225 14.0877C14.0926 12.8849 14.5765 11.682 15.0466 10.4654C15.3093 9.81556 15.5443 9.15191 15.807 8.44679L15.7932 8.46062Z" fill="#2CABBE"/>
</g>
</g>
</g>
</g>
</svg>
