<svg width="43" height="30" viewBox="0 0 43 30" fill="none" xmlns="http://www.w3.org/2000/svg">
<rect x="0.5" y="0.5" width="42" height="29" rx="5.5" fill="white" stroke="#D9D9D9"/>
<g clip-path="url(#clip0_9122_10644)">
<path fill-rule="evenodd" clip-rule="evenodd" d="M9 3H33V15.9534V19.4614V27H9V14.7863V13.117V3Z" fill="#2871B9"/>
<path fill-rule="evenodd" clip-rule="evenodd" d="M13.6611 19.7259V15.96H17.651L18.0784 16.5164L18.5195 15.96H32.9996V19.468C32.9996 19.468 32.6196 19.7259 32.1853 19.7259H24.1649L23.6832 19.1287V19.7259H22.1022V18.7148C22.1022 18.7148 21.8851 18.8573 21.4169 18.8573H20.8808V19.7326H18.4856L18.0581 19.1627L17.6238 19.7326H13.6611V19.7259Z" fill="white"/>
<path fill-rule="evenodd" clip-rule="evenodd" d="M9 13.1172L9.90246 11.0205H11.4563L11.9652 12.1944V11.0205H13.8991L14.2044 11.8687L14.4962 11.0205H23.1747V11.448C23.1747 11.448 23.6293 11.0205 24.3825 11.0205H27.1985L27.7006 12.1876V11.0205H29.3223L29.7701 11.6855V11.0205H31.4054V14.7864H29.7701L29.3427 14.1214V14.7864H26.9678L26.7303 14.1893H26.0925L25.855 14.7864H24.24C23.5954 14.7864 23.1815 14.3657 23.1815 14.3657V14.7864H20.7523L20.2706 14.1893V14.7864H11.2256L10.9881 14.1893H10.3503L10.1128 14.7864H9V13.1172Z" fill="white"/>
<path fill-rule="evenodd" clip-rule="evenodd" d="M10.2214 11.4819L9 14.3047H9.78711L10.011 13.7415H11.3138L11.5377 14.3047H12.3452L11.1306 11.4819H10.2078H10.2214ZM10.6692 12.1401L11.0628 13.124H10.2689L10.6692 12.1401Z" fill="#2871B9"/>
<path fill-rule="evenodd" clip-rule="evenodd" d="M12.4336 14.3047V11.4819L13.56 11.4887L14.2114 13.3072L14.8492 11.4819H15.962V14.3047H15.2563V12.2283L14.5099 14.3047H13.8925L13.1393 12.2283V14.3047H12.4336Z" fill="#2871B9"/>
<path fill-rule="evenodd" clip-rule="evenodd" d="M16.4434 14.3047V11.4819H18.7436V12.113H17.1558V12.5947H18.7097V13.1919H17.1558V13.694H18.7436V14.3047H16.4434Z" fill="#2871B9"/>
<path fill-rule="evenodd" clip-rule="evenodd" d="M19.1514 11.4819V14.3047H19.8571V13.3004H20.1556L21.0038 14.3047H21.8655L20.9359 13.2665C21.3159 13.2326 21.7095 12.9069 21.7095 12.398C21.7095 11.8076 21.2413 11.4819 20.7256 11.4819H19.1582H19.1514ZM19.8571 12.113H20.6645C20.8613 12.113 20.997 12.2623 20.997 12.4115C20.997 12.6015 20.8138 12.7101 20.6713 12.7101H19.8571V12.113Z" fill="#2871B9"/>
<path fill-rule="evenodd" clip-rule="evenodd" d="M22.7134 14.3047H21.9941V11.4819H22.7134V14.3047Z" fill="#2871B9"/>
<path fill-rule="evenodd" clip-rule="evenodd" d="M24.4234 14.3047H24.2674C23.5142 14.3047 23.0596 13.7143 23.0596 12.9069C23.0596 12.0994 23.5142 11.4819 24.4642 11.4819H25.2445V12.1469H24.437C24.0502 12.1469 23.7788 12.4455 23.7788 12.9069C23.7788 13.4565 24.091 13.6804 24.5388 13.6804H24.722L24.4234 14.2979V14.3047Z" fill="#2871B9"/>
<path fill-rule="evenodd" clip-rule="evenodd" d="M25.9568 11.4819L24.7422 14.3047H25.5293L25.7532 13.7415H27.056L27.2799 14.3047H28.0874L26.8728 11.4819H25.95H25.9568ZM26.4114 12.1401L26.805 13.124H26.0111L26.4114 12.1401Z" fill="#2871B9"/>
<path fill-rule="evenodd" clip-rule="evenodd" d="M28.1758 14.3047V11.4819H29.0715L30.2182 13.2529V11.4819H30.9239V14.3047H30.0553L28.8815 12.4862V14.3047H28.1758Z" fill="#2871B9"/>
<path fill-rule="evenodd" clip-rule="evenodd" d="M14.1436 19.2441V16.4214H16.4438V17.0524H14.856V17.5342H16.4031V18.1245H14.856V18.6266H16.4438V19.2441H14.1436Z" fill="#2871B9"/>
<path fill-rule="evenodd" clip-rule="evenodd" d="M25.4209 19.2441V16.4214H27.7212V17.0524H26.1334V17.5342H27.6737V18.1245H26.1334V18.6266H27.7212V19.2441H25.4209Z" fill="#2871B9"/>
<path fill-rule="evenodd" clip-rule="evenodd" d="M16.532 19.2441L17.6516 17.8463L16.5049 16.4214H17.3938L18.0791 17.3035L18.7644 16.4214H19.6194L18.4862 17.8328L19.6058 19.2441H18.7169L18.0587 18.3688L17.4073 19.2441H16.532Z" fill="#2871B9"/>
<path fill-rule="evenodd" clip-rule="evenodd" d="M19.6934 16.4214V19.2441H20.4194V18.3552H21.159C21.7901 18.3552 22.265 18.0227 22.265 17.3713C22.265 16.8353 21.8918 16.4214 21.254 16.4214H19.6934ZM20.4126 17.0592H21.1929C21.3965 17.0592 21.539 17.1814 21.539 17.3849C21.539 17.5749 21.3965 17.7106 21.1861 17.7106H20.4058V17.0592H20.4126Z" fill="#2871B9"/>
<path fill-rule="evenodd" clip-rule="evenodd" d="M22.5713 16.4214V19.2441H23.277V18.2399H23.5755L24.4237 19.2441H25.2855L24.3559 18.2059C24.7358 18.172 25.1294 17.8463 25.1294 17.3374C25.1294 16.7471 24.6612 16.4214 24.1455 16.4214H22.5781H22.5713ZM23.277 17.0524H24.0844C24.2812 17.0524 24.4169 17.2017 24.4169 17.351C24.4169 17.541 24.2337 17.6495 24.0912 17.6495H23.277V17.0524Z" fill="#2871B9"/>
<path fill-rule="evenodd" clip-rule="evenodd" d="M28.0462 19.2441V18.6334H29.4576C29.6679 18.6334 29.7561 18.5181 29.7561 18.3959C29.7561 18.2738 29.6679 18.1585 29.4576 18.1585H28.8198C28.2634 18.1585 27.958 17.8192 27.958 17.3103C27.958 16.8557 28.243 16.4214 29.064 16.4214H30.4347L30.1361 17.0592H28.9487C28.7248 17.0592 28.6501 17.1814 28.6501 17.2899C28.6501 17.3985 28.7383 17.5342 28.908 17.5342H29.5729C30.1904 17.5342 30.4618 17.887 30.4618 18.3417C30.4618 18.837 30.1633 19.2373 29.539 19.2373H28.0326L28.0462 19.2441Z" fill="#2871B9"/>
<path fill-rule="evenodd" clip-rule="evenodd" d="M30.639 19.2441V18.6334H31.9893C32.1996 18.6334 32.2878 18.5181 32.2878 18.3959C32.2878 18.2738 32.1996 18.1585 31.9893 18.1585H31.4125C30.8561 18.1585 30.5508 17.8192 30.5508 17.3103C30.5508 16.8557 30.8358 16.4214 31.6568 16.4214H33.0003L32.7018 17.0592H31.5415C31.3175 17.0592 31.2429 17.1814 31.2429 17.2899C31.2429 17.3985 31.3311 17.5342 31.5007 17.5342H32.1114C32.7289 17.5342 33.0003 17.887 33.0003 18.3417C33.0003 18.837 32.7018 19.2373 32.0775 19.2373H30.6322L30.639 19.2441Z" fill="#2871B9"/>
</g>
<defs>
<clipPath id="clip0_9122_10644">
<rect width="24" height="24" fill="white" transform="translate(9 3)"/>
</clipPath>
</defs>
</svg>
