<svg width="43" height="30" viewBox="0 0 43 30" fill="none" xmlns="http://www.w3.org/2000/svg">
<rect x="0.5" y="0.5" width="42" height="29" rx="5.5" fill="white" stroke="#D9D9D9"/>
<g clip-path="url(#clip0_9122_10641)">
<path fill-rule="evenodd" clip-rule="evenodd" d="M20.9996 3.20557C27.5097 3.20557 32.7941 8.48102 32.7941 14.9965C32.7941 21.5119 27.517 26.7873 20.9996 26.7873C14.4821 26.7873 9.20508 21.5119 9.20508 14.9965C9.20508 8.48102 14.4895 3.20557 20.9996 3.20557Z" fill="#000009" stroke="#19181C" stroke-width="0.57" stroke-miterlimit="22.93"/>
<path fill-rule="evenodd" clip-rule="evenodd" d="M15.9353 11.8413C17.6453 11.8413 19.0765 13.0226 19.4582 14.6148L17.9976 15.2531L16.5004 15.9061L12.9187 17.4763C12.5371 16.904 12.3096 16.2143 12.3096 15.4659C12.3096 13.4628 13.9316 11.8413 15.9353 11.8413ZM17.4912 14.0938L13.8729 15.6567C13.8729 15.5906 13.8655 15.5319 13.8655 15.4659C13.8655 14.3213 14.7903 13.3895 15.9426 13.3895C16.5591 13.3895 17.1169 13.6609 17.4986 14.0938H17.4912Z" fill="white"/>
<path fill-rule="evenodd" clip-rule="evenodd" d="M18.4674 18.0562C17.1683 19.2888 15.4509 19.4062 13.9463 18.4964L14.7977 17.1977C15.6564 17.7113 16.5151 17.6306 17.3812 16.9482L18.4674 18.0562Z" fill="white"/>
<path fill-rule="evenodd" clip-rule="evenodd" d="M19.9424 17.1537V10.3008H21.2341V16.9703C21.2341 17.0363 21.2415 17.0877 21.3295 17.1244L22.4598 17.5646L21.9534 18.8853L20.6323 18.3277C20.1332 18.1149 19.9571 17.8067 19.9571 17.1611L19.9424 17.1537Z" fill="white"/>
<path fill-rule="evenodd" clip-rule="evenodd" d="M24.8311 17.0436C24.3467 16.6621 24.0311 16.0751 24.0311 15.4074C24.0311 14.8204 24.2806 14.2848 24.677 13.9106L23.8403 12.5532C22.9962 13.2209 22.4531 14.2555 22.4531 15.4147C22.4531 16.6621 23.0843 17.7626 24.0384 18.423L24.8311 17.0509V17.0436Z" fill="#009ED6"/>
<path fill-rule="evenodd" clip-rule="evenodd" d="M25.4037 13.463C25.6239 13.3823 25.8588 13.3382 26.101 13.3382C26.9891 13.3382 27.745 13.8959 28.0386 14.6736L29.6459 14.5415C29.257 12.942 27.8184 11.7607 26.101 11.7607C25.6166 11.7607 25.1542 11.8561 24.7285 12.0249L25.3964 13.4556L25.4037 13.463Z" fill="#F6EC3D"/>
<path fill-rule="evenodd" clip-rule="evenodd" d="M28.1629 15.5103C28.1115 16.6035 27.2088 17.4766 26.1005 17.4766C25.9244 17.4766 25.7556 17.4546 25.5941 17.4179L24.9629 18.878C25.3225 18.9954 25.7042 19.0615 26.1005 19.0615C28.0675 19.0615 29.6675 17.506 29.7409 15.569L28.1629 15.5176V15.5103Z" fill="#EB4324"/>
</g>
<defs>
<clipPath id="clip0_9122_10641">
<rect width="24" height="24" fill="white" transform="translate(9 3)"/>
</clipPath>
</defs>
</svg>
