<svg width="43" height="30" viewBox="0 0 43 30" fill="none" xmlns="http://www.w3.org/2000/svg">
<rect x="0.5" y="0.5" width="42" height="29" rx="5.5" fill="white" stroke="#D9D9D9"/>
<g clip-path="url(#clip0_9122_15547)">
<path fill-rule="evenodd" clip-rule="evenodd" d="M13.1564 7H9.32293C7.62789 7.078 6.24229 7.7571 5.84509 9.15658C5.63725 9.88615 5.52178 10.6845 5.36013 11.4416C4.52877 15.2868 3.79441 19.2329 3 23H32.8549C35.1643 23 36.7485 22.5136 37.178 20.6966C37.3766 19.8523 37.566 18.8933 37.76 17.9664C38.5036 14.3461 39.2425 10.7258 40.0046 7H13.1564Z" fill="#981B1E"/>
<path fill-rule="evenodd" clip-rule="evenodd" d="M12.8566 12.6852C13.0183 12.575 13.2215 12.0749 12.9859 11.8684C12.912 11.8042 12.7873 11.7812 12.6118 11.8134C12.4502 11.8409 12.3578 11.896 12.2931 11.9785C12.1915 12.1162 12.0992 12.5292 12.2562 12.6852C12.4086 12.8366 12.755 12.754 12.8566 12.6852ZM10.575 11.8684C10.4595 12.6072 10.3302 13.3367 10.2009 14.0617C9.36954 14.0709 8.51509 14.103 7.71145 14.0434C7.86386 13.3321 7.97009 12.5796 8.12251 11.8684H7.22649C6.90318 13.6809 6.61221 15.5208 6.25195 17.2966H7.16645C7.30962 16.3881 7.44356 15.4658 7.63293 14.6032C8.41348 14.5848 9.35107 14.5527 10.1039 14.6215C9.94687 15.5208 9.76213 16.3881 9.61895 17.2966H10.5334C10.829 15.4566 11.1385 13.635 11.508 11.8684H10.5704H10.575ZM23.5396 13.4285C22.8283 13.144 22.2648 13.6258 22.0062 14.0801C22.0662 13.8782 22.0893 13.6442 22.1355 13.4285H21.4242C21.2487 14.7683 20.9947 16.0256 20.7499 17.292H21.5535C21.6644 16.5395 21.7152 15.5208 21.9646 14.8005C22.1632 14.2223 22.6897 13.7359 23.4426 14.0021C23.4518 13.791 23.5165 13.6258 23.5349 13.4239L23.5396 13.4285ZM23.9876 16.3835C23.9137 16.1954 23.8952 15.8787 23.9137 15.6401C23.9552 15.1033 24.1538 14.4471 24.4541 14.1535C24.8743 13.7451 25.7011 13.8139 26.3616 14.0434C26.38 13.8231 26.4262 13.6258 26.4539 13.4102C25.3685 13.2358 24.3432 13.3459 23.7982 13.9103C23.2624 14.4655 22.916 15.7457 23.1608 16.5487C23.4518 17.4893 24.7496 17.5398 25.7981 17.1819C25.8443 16.9937 25.8674 16.7827 25.9089 16.5854C25.3362 16.8836 24.237 17.035 23.9829 16.3789L23.9876 16.3835ZM33.0263 13.4469C32.315 13.0935 31.7238 13.6855 31.4929 14.0434C31.5575 13.8598 31.5622 13.6166 31.6222 13.4285H30.9109C30.7216 14.7546 30.486 16.0439 30.2181 17.292H31.0402C31.0449 16.7781 31.1465 16.4018 31.225 15.8971C31.3959 14.8234 31.6499 13.6488 32.9108 14.0021C32.9524 13.8185 32.9708 13.6166 33.0216 13.4423L33.0263 13.4469ZM12.0345 13.4285C12.0345 13.4285 12.016 13.456 12.016 13.4836C11.8405 14.8005 11.6003 16.0531 11.3417 17.292H12.1453C12.3393 15.9659 12.561 14.6674 12.8381 13.4285H12.0345ZM19.1057 13.3551C18.5237 13.401 18.0341 13.5662 17.6831 13.9332C17.2536 14.3829 16.9072 15.374 17.0088 16.2734C17.152 17.5627 18.7685 17.5168 20.0571 17.2048C20.0802 16.98 20.1356 16.7873 20.1679 16.5716C19.6368 16.7689 18.7131 17.0442 18.1681 16.7001C17.757 16.4385 17.7524 15.7824 17.8863 15.2134C18.7546 15.1859 19.6553 15.1905 20.5236 15.2134C20.579 14.8096 20.736 14.3691 20.5975 13.9699C20.4173 13.4423 19.7661 13.3046 19.101 13.3551H19.1057ZM19.8723 14.7683H17.9833C18.0434 14.337 18.4359 13.8644 19.0502 13.8369C19.6276 13.8139 20.0432 14.0479 19.8723 14.7683ZM16.0573 13.4285C15.3784 13.1761 14.547 13.479 14.1868 13.7681C14.1868 13.7818 14.1776 13.7818 14.1683 13.7818C14.1729 13.7772 14.1822 13.7726 14.1868 13.7681C14.1914 13.6442 14.2376 13.557 14.2422 13.4331H13.5494C13.2631 15.3373 12.9167 17.1911 12.5564 19.0264H13.3601C13.4755 18.3106 13.554 17.5581 13.7157 16.8882C13.9004 17.5902 15.0967 17.4572 15.6047 17.1865C16.6485 16.6267 17.4568 13.9562 16.0527 13.4331L16.0573 13.4285ZM15.42 16.5716C14.9904 17.0259 13.9328 17.0167 13.8496 16.255C13.8127 15.9246 13.9374 15.5759 13.9974 15.2318C14.0575 14.883 14.1037 14.5527 14.1637 14.2453C14.5886 13.7313 15.831 13.6671 15.9604 14.5251C16.0712 15.2685 15.7756 16.1954 15.42 16.5716ZM36.0191 11.7583C35.9499 12.3594 35.8575 12.9375 35.7374 13.4882C33.7652 12.8687 32.5552 14.3095 32.5783 16.0898C32.5783 16.434 32.6429 16.7735 32.86 17.0213C33.2341 17.4388 34.301 17.5398 34.8414 17.1865C34.9476 17.1176 35.0539 16.9937 35.1231 16.9066C35.1739 16.8423 35.2571 16.6726 35.2709 16.7184C35.2432 16.9066 35.2016 17.0809 35.197 17.2966H35.9268C36.0653 15.2914 36.5041 13.5799 36.8228 11.7583H36.0191ZM34.2225 16.8699C33.6821 16.8836 33.4096 16.5487 33.4004 15.998C33.3773 15.0299 33.8068 13.9562 34.6705 13.8598C35.0723 13.8139 35.3679 13.9103 35.6635 14.0067C35.391 15.0941 35.488 16.8423 34.2225 16.8699ZM27.2807 13.4285C27.2391 13.6488 27.1791 13.8506 27.1329 14.0617C27.6086 13.9424 29.0866 13.5799 29.2297 14.2085C29.2759 14.4196 29.1974 14.6399 29.1374 14.805C27.8026 14.6812 26.7126 14.9014 26.4262 15.8466C26.2322 16.4798 26.4493 17.1039 26.8557 17.2782C27.6409 17.6132 28.6016 17.2278 28.9341 16.7001C28.9018 16.8836 28.8649 17.0672 28.8787 17.2966H29.5715C29.5807 16.6358 29.6731 16.1036 29.7794 15.5117C29.8671 15.0069 30.0288 14.5068 30.0057 14.0617C29.9456 13.0431 28.246 13.401 27.2945 13.4285H27.2807ZM28.5924 16.5533C28.1767 16.957 27.0128 17.0718 27.1329 16.1082C27.2299 15.3098 28.1074 15.1354 29.0588 15.2547C28.9896 15.6906 28.9064 16.2504 28.5924 16.5578V16.5533Z" fill="white"/>
</g>
<defs>
<clipPath id="clip0_9122_15547">
<rect width="37" height="16" fill="white" transform="translate(3 7)"/>
</clipPath>
</defs>
</svg>
