<svg width="43" height="30" viewBox="0 0 43 30" fill="none" xmlns="http://www.w3.org/2000/svg">
<rect x="0.5" y="0.5" width="42" height="29" rx="5.5" fill="white" stroke="#D9D9D9"/>
<path fill-rule="evenodd" clip-rule="evenodd" d="M20.8172 22.3914C19.1419 23.8622 16.9688 24.75 14.5943 24.75C9.29553 24.75 5 20.3288 5 14.875C5 9.42119 9.29553 5 14.5943 5C16.9688 5 19.1419 5.88783 20.8172 7.35856C22.4925 5.88783 24.6655 5 27.04 5C32.3388 5 36.6344 9.42119 36.6344 14.875C36.6344 20.3288 32.3388 24.75 27.04 24.75C24.6655 24.75 22.4925 23.8622 20.8172 22.3914Z" fill="#ED0006"/>
<path fill-rule="evenodd" clip-rule="evenodd" d="M20.8184 22.3905C22.8809 20.5792 24.1887 17.8843 24.1887 14.875C24.1887 11.8657 22.8809 9.1708 20.8184 7.35955C22.4938 5.88823 24.6673 5 27.0423 5C32.3411 5 36.6367 9.42119 36.6367 14.875C36.6367 20.3288 32.3411 24.75 27.0423 24.75C24.6673 24.75 22.4938 23.8618 20.8184 22.3905Z" fill="#F9A000"/>
<path fill-rule="evenodd" clip-rule="evenodd" d="M20.8178 22.3913C22.881 20.58 24.1893 17.8847 24.1893 14.8748C24.1893 11.865 22.881 9.16966 20.8178 7.3584C18.7546 9.16966 17.4463 11.865 17.4463 14.8748C17.4463 17.8847 18.7546 20.58 20.8178 22.3913Z" fill="#FF5E00"/>
</svg>
