<svg width="43" height="30" viewBox="0 0 43 30" fill="none" xmlns="http://www.w3.org/2000/svg">
<rect x="0.5" y="0.5" width="42" height="29" rx="5.5" fill="white" stroke="#D9D9D9"/>
<path fill-rule="evenodd" clip-rule="evenodd" d="M11.758 20.2866H8.72635L6.45296 11.4622C6.34505 11.0562 6.11594 10.6974 5.77892 10.5282C4.93785 10.1032 4.01105 9.76493 3 9.59432V9.25458H7.88381C8.55784 9.25458 9.06337 9.76493 9.14762 10.3576L10.3272 16.723L13.3574 9.25458H16.3048L11.758 20.2866ZM17.99 20.2866H15.1268L17.4845 9.25458H20.3476L17.99 20.2866ZM24.0509 12.3106C24.1352 11.7164 24.6407 11.3767 25.2305 11.3767C26.1573 11.2914 27.1669 11.462 28.0094 11.8856L28.5149 9.51034C27.6724 9.17061 26.7456 9 25.9045 9C23.1256 9 21.1035 10.5281 21.1035 12.6489C21.1035 14.2623 22.5358 15.1094 23.5469 15.6198C24.6407 16.1286 25.062 16.4684 24.9777 16.9773C24.9777 17.7406 24.1352 18.0803 23.2941 18.0803C22.283 18.0803 21.272 17.8259 20.3467 17.4008L19.8411 19.7775C20.8522 20.2011 21.946 20.3717 22.9571 20.3717C26.073 20.4555 28.0094 18.9289 28.0094 16.6375C28.0094 13.7519 24.0509 13.5828 24.0509 12.3106ZM38.0311 20.2866L35.7577 9.25458H33.3158C32.8102 9.25458 32.3047 9.59432 32.1362 10.1032L27.9264 20.2866H30.8739L31.4622 18.6746H35.0836L35.4207 20.2866H38.0311ZM33.7368 12.2255L34.5779 16.3832H32.2203L33.7368 12.2255Z" fill="#172B85"/>
</svg>
