<svg width="26" height="19" viewBox="0 0 26 19" fill="none" xmlns="http://www.w3.org/2000/svg">
<path d="M24.9922 6.19141C25.1826 6.04004 25.4658 6.18164 25.4658 6.4209V16.4062C25.4658 17.7002 24.416 18.75 23.1221 18.75H2.80957C1.51562 18.75 0.46582 17.7002 0.46582 16.4062V6.42578C0.46582 6.18164 0.744141 6.04492 0.939453 6.19629C2.0332 7.0459 3.4834 8.125 8.46387 11.7432C9.49414 12.4951 11.2324 14.0771 12.9658 14.0674C14.709 14.082 16.4814 12.4658 17.4727 11.7432C22.4531 8.125 23.8984 7.04102 24.9922 6.19141ZM12.9658 12.5C14.0986 12.5195 15.7295 11.0742 16.5498 10.4785C23.0293 5.77637 23.5225 5.36621 25.0166 4.19434C25.2998 3.97461 25.4658 3.63281 25.4658 3.27148V2.34375C25.4658 1.0498 24.416 0 23.1221 0H2.80957C1.51562 0 0.46582 1.0498 0.46582 2.34375V3.27148C0.46582 3.63281 0.631836 3.96973 0.915039 4.19434C2.40918 5.36133 2.90234 5.77637 9.38184 10.4785C10.2021 11.0742 11.833 12.5195 12.9658 12.5Z" fill="white"/>
</svg>
