<svg width="23" height="22" viewBox="0 0 23 22" fill="none" xmlns="http://www.w3.org/2000/svg">
<g id="facebook" clip-path="url(#clip0_114_133)">
<path id="Vector" d="M22.8872 11.0672C22.8872 4.99239 17.962 0.0671387 11.8872 0.0671387C5.81246 0.0671387 0.887207 4.99239 0.887207 11.0672C0.887207 16.558 4.90954 21.1083 10.1685 21.9333V14.2471H7.37537V11.0662H10.1685V8.64442C10.1685 5.88797 11.8111 4.36447 14.3237 4.36447C15.5264 4.36447 16.7859 4.57989 16.7859 4.57989V7.28681H15.3981C14.0313 7.28681 13.6051 8.13471 13.6051 9.00467V11.0672H16.6557L16.1681 14.248H13.6051V21.9342C18.8649 21.1083 22.8872 16.5571 22.8872 11.0672Z" fill="white"/>
</g>
<defs>
<clipPath id="clip0_114_133">
<rect width="22" height="22" fill="white" transform="translate(0.887207)"/>
</clipPath>
</defs>
</svg>
