<svg width="23" height="22" viewBox="0 0 23 22" fill="none" xmlns="http://www.w3.org/2000/svg">
<path d="M20.9033 0H2.14844C1.28906 0 0.59082 0.708008 0.59082 1.57715V20.2979C0.59082 21.167 1.28906 21.875 2.14844 21.875H20.9033C21.7627 21.875 22.4658 21.167 22.4658 20.2979V1.57715C22.4658 0.708008 21.7627 0 20.9033 0ZM7.20215 18.75H3.95996V8.31055H7.20703V18.75H7.20215ZM5.58105 6.88477C4.54102 6.88477 3.70117 6.04004 3.70117 5.00488C3.70117 3.96973 4.54102 3.125 5.58105 3.125C6.61621 3.125 7.46094 3.96973 7.46094 5.00488C7.46094 6.04492 6.62109 6.88477 5.58105 6.88477ZM19.3555 18.75H16.1133V13.6719C16.1133 12.4609 16.0889 10.9033 14.4287 10.9033C12.7393 10.9033 12.4805 12.2217 12.4805 13.584V18.75H9.23828V8.31055H12.3486V9.73633H12.3926C12.8271 8.91602 13.8867 8.05176 15.4639 8.05176C18.7451 8.05176 19.3555 10.2148 19.3555 13.0273V18.75Z" fill="white"/>
</svg>
