<svg width="25" height="17" viewBox="0 0 25 17" fill="none" xmlns="http://www.w3.org/2000/svg">
<path id="Vector" d="M24.0956 2.60777C23.823 1.58129 23.0198 0.772873 22 0.498524C20.1514 0 12.7391 0 12.7391 0C12.7391 0 5.32675 0 3.47818 0.498524C2.45834 0.772917 1.65513 1.58129 1.38252 2.60777C0.887207 4.46832 0.887207 8.35017 0.887207 8.35017C0.887207 8.35017 0.887207 12.232 1.38252 14.0926C1.65513 15.1191 2.45834 15.8938 3.47818 16.1681C5.32675 16.6667 12.7391 16.6667 12.7391 16.6667C12.7391 16.6667 20.1514 16.6667 22 16.1681C23.0198 15.8938 23.823 15.1191 24.0956 14.0926C24.5909 12.232 24.5909 8.35017 24.5909 8.35017C24.5909 8.35017 24.5909 4.46832 24.0956 2.60777ZM10.3148 11.8746V4.82574L16.5101 8.35026L10.3148 11.8746Z" fill="white"/>
</svg>
