<svg width="16" height="14" viewBox="0 0 16 14" fill="none" xmlns="http://www.w3.org/2000/svg">
<path d="M12.4815 10.7067C12.1726 10.7075 11.8666 10.6547 11.5812 10.5514C11.2957 10.448 11.0366 10.2961 10.8188 10.1046L8.41807 8.01032C8.3333 7.93915 8.22035 7.89941 8.10285 7.89941C7.98534 7.89941 7.87239 7.93915 7.78763 8.01032L5.37821 10.1164C5.16039 10.308 4.90125 10.4599 4.61583 10.5632C4.33041 10.6666 4.02437 10.7194 3.71545 10.7185H3.24286L6.28272 13.3777C6.73887 13.7762 7.35732 14.0001 8.00214 14.0001C8.64697 14.0001 9.26541 13.7762 9.72156 13.3777L12.7701 10.7109L12.4815 10.7067Z" fill="#32BCAD"/>
<path d="M3.71506 3.2814C4.02396 3.28077 4.32993 3.33365 4.61533 3.43699C4.90072 3.54034 5.15987 3.6921 5.37783 3.88351L7.78725 5.99048C7.87093 6.06345 7.98429 6.10442 8.10247 6.10442C8.22064 6.10442 8.334 6.06345 8.41769 5.99048L10.8184 3.89113C11.0363 3.69972 11.2955 3.54796 11.5809 3.44462C11.8663 3.34127 12.1723 3.28839 12.4812 3.28902H12.7717L9.72311 0.623134C9.49737 0.425586 9.22933 0.268876 8.93431 0.161956C8.63928 0.0550352 8.32305 0 8.00368 0C7.68433 0 7.3681 0.0550352 7.07307 0.161956C6.77805 0.268876 6.51001 0.425586 6.28427 0.623134L3.24442 3.2814H3.71506Z" fill="#32BCAD"/>
<path d="M15.2921 5.49394L13.4521 3.88492C13.4105 3.89947 13.3662 3.90722 13.3214 3.90778H12.4837C12.0476 3.90936 11.6299 4.06155 11.3216 4.33121L8.917 6.42632C8.81013 6.51992 8.68316 6.59413 8.5434 6.64471C8.40363 6.69528 8.25382 6.72122 8.10256 6.72102C7.79696 6.72149 7.50366 6.61579 7.28716 6.42716L4.87775 4.3202C4.56941 4.05054 4.15172 3.89835 3.71565 3.89677H2.68622C2.64371 3.89608 2.6017 3.88863 2.56226 3.87476L0.712587 5.49224C0.486682 5.68964 0.307476 5.92404 0.185207 6.18203C0.0629384 6.44002 0 6.71655 0 6.99583C0 7.2751 0.0629384 7.55163 0.185207 7.80962C0.307476 8.06761 0.486682 8.30201 0.712587 8.49941L2.56226 10.1169C2.6017 10.103 2.64371 10.0956 2.68622 10.0949H3.71565C4.15165 10.093 4.56923 9.94087 4.87775 9.67145L7.28716 7.56449C7.50675 7.38127 7.79858 7.27906 8.10208 7.27906C8.40558 7.27906 8.69742 7.38127 8.917 7.56449L11.3177 9.66383C11.6262 9.93325 12.0438 10.0854 12.4798 10.0873H13.3175C13.3624 10.0877 13.4068 10.0957 13.4482 10.111L15.2882 8.50195C15.744 8.10306 16 7.56225 16 6.99837C16 6.43448 15.744 5.89367 15.2882 5.49478" fill="#32BCAD"/>
</svg>
