<svg width="29" height="28" viewBox="0 0 29 28" fill="none" xmlns="http://www.w3.org/2000/svg">
<rect x="0.5" y="0.5" width="28" height="27" rx="13.5" stroke="white"/>
<path d="M18.3525 10.0984C17.3237 9.06719 15.9536 8.5 14.4975 8.5C11.4922 8.5 9.04665 10.9455 9.04665 13.9509C9.04665 14.9109 9.2971 15.8489 9.77344 16.6763L9 19.5L11.89 18.7413C12.6855 19.1759 13.5817 19.4042 14.4951 19.4042H14.4975C17.5004 19.4042 20 16.9587 20 13.9533C20 12.4973 19.3812 11.1297 18.3525 10.0984ZM14.4975 18.4859C13.6824 18.4859 12.8844 18.2674 12.1895 17.8549L12.025 17.7567L10.3112 18.206L10.7679 16.5339L10.6598 16.3621C10.2056 15.6402 9.96741 14.8078 9.96741 13.9509C9.96741 11.4538 12.0004 9.42076 14.5 9.42076C15.7105 9.42076 16.8473 9.89219 17.7018 10.7491C18.5562 11.606 19.0817 12.7429 19.0792 13.9533C19.0792 16.4529 16.9946 18.4859 14.4975 18.4859ZM16.9824 15.0926C16.8473 15.0239 16.177 14.6949 16.0518 14.6507C15.9266 14.604 15.8357 14.5819 15.7449 14.7194C15.654 14.8569 15.3938 15.1614 15.3127 15.2547C15.2342 15.3455 15.1531 15.3578 15.0181 15.2891C14.2176 14.8888 13.6922 14.5746 13.1643 13.6685C13.0243 13.4279 13.3042 13.4451 13.5645 12.9246C13.6087 12.8337 13.5866 12.7551 13.5522 12.6864C13.5179 12.6176 13.2453 11.9473 13.1324 11.6748C13.0219 11.4096 12.9089 11.4464 12.8254 11.4415C12.7469 11.4366 12.656 11.4366 12.5652 11.4366C12.4743 11.4366 12.327 11.471 12.2018 11.606C12.0766 11.7435 11.7254 12.0725 11.7254 12.7429C11.7254 13.4132 12.2141 14.0614 12.2804 14.1522C12.3491 14.2431 13.2404 15.6181 14.608 16.2098C15.4723 16.583 15.8112 16.615 16.2433 16.5511C16.506 16.5118 17.0487 16.2221 17.1616 15.9029C17.2746 15.5837 17.2746 15.3112 17.2402 15.2547C17.2083 15.1933 17.1174 15.1589 16.9824 15.0926Z" fill="white"/>
</svg>
