<svg width="21" height="21" viewBox="0 0 21 21" fill="none" xmlns="http://www.w3.org/2000/svg">
<path d="M0 21L1.47612 15.6074C0.56525 14.0289 0.086625 12.2395 0.0875 10.4046C0.090125 4.66812 4.75825 0 10.4939 0C13.2773 0.000875 15.89 1.085 17.8552 3.052C19.8196 5.019 20.9011 7.6335 20.9003 10.4143C20.8976 16.1516 16.2295 20.8197 10.4939 20.8197C8.75263 20.8189 7.03675 20.3822 5.51687 19.5527L0 21ZM5.77237 17.6689C7.23887 18.5395 8.63887 19.061 10.4904 19.0619C15.2574 19.0619 19.1406 15.1821 19.1432 10.4125C19.145 5.63325 15.2801 1.75875 10.4974 1.757C5.72687 1.757 1.84625 5.63675 1.8445 10.4055C1.84363 12.3524 2.41412 13.8101 3.37225 15.3352L2.49813 18.5273L5.77237 17.6689ZM15.736 12.8879C15.6713 12.7794 15.498 12.7146 15.2373 12.5842C14.9774 12.4539 13.699 11.8247 13.4601 11.7381C13.2221 11.6515 13.0489 11.6077 12.8748 11.8685C12.7015 12.1284 12.2028 12.7146 12.0514 12.8879C11.9 13.0611 11.7477 13.083 11.4879 12.9526C11.228 12.8223 10.3897 12.5484 9.39662 11.662C8.624 10.9725 8.10162 10.1211 7.95025 9.86038C7.79887 9.6005 7.9345 9.45963 8.064 9.33012C8.18125 9.21375 8.32387 9.0265 8.45425 8.87425C8.58637 8.72375 8.62925 8.61525 8.71675 8.44112C8.80338 8.26788 8.7605 8.11563 8.69488 7.98525C8.62925 7.85575 8.1095 6.57562 7.89337 6.055C7.68162 5.54838 7.46725 5.61662 7.308 5.60875L6.80925 5.6C6.636 5.6 6.35425 5.66475 6.11625 5.9255C5.87825 6.18625 5.20625 6.8145 5.20625 8.09463C5.20625 9.37475 6.13812 10.6111 6.26762 10.7844C6.398 10.9576 8.10075 13.5844 10.7091 14.7105C11.3295 14.9783 11.8142 15.1384 12.1914 15.2582C12.8144 15.456 13.3814 15.428 13.8294 15.3615C14.329 15.2871 15.3676 14.7324 15.5846 14.1251C15.8016 13.517 15.8016 12.9964 15.736 12.8879Z" fill="#60AE32"/>
</svg>
